<?xml version="1.0" encoding="UTF-8" standalone="no"?>
<svg
   xmlns:dc="http://purl.org/dc/elements/1.1/"
   xmlns:cc="http://creativecommons.org/ns#"
   xmlns:rdf="http://www.w3.org/1999/02/22-rdf-syntax-ns#"
   xmlns:svg="http://www.w3.org/2000/svg"
   xmlns="http://www.w3.org/2000/svg"
   xmlns:sodipodi="http://sodipodi.sourceforge.net/DTD/sodipodi-0.dtd"
   xmlns:inkscape="http://www.inkscape.org/namespaces/inkscape"
   sodipodi:docname="PurpleArrow.svg"
   inkscape:version="1.0 (4035a4fb49, 2020-05-01)"
   id="svg8"
   version="1.1"
   viewBox="0 0 512 512"
   height="512mm"
   width="512mm">
  <defs
     id="defs2">
    <inkscape:path-effect
       update_on_knot_move="true"
       attempt_force_join="true"
       miter_limit="4"
       offset="-7"
       unit="mm"
       linejoin_type="miter"
       lpeversion="1"
       is_visible="true"
       id="path-effect14"
       effect="offset" />
  </defs>
  <sodipodi:namedview
     fit-margin-bottom="0"
     fit-margin-right="0"
     fit-margin-left="0"
     fit-margin-top="0"
     inkscape:window-maximized="0"
     inkscape:window-y="0"
     inkscape:window-x="0"
     inkscape:window-height="768"
     inkscape:window-width="1366"
     showgrid="false"
     inkscape:document-rotation="0"
     inkscape:current-layer="layer1"
     inkscape:document-units="mm"
     inkscape:cy="1076.7756"
     inkscape:cx="588.00399"
     inkscape:zoom="0.17795348"
     inkscape:pageshadow="2"
     inkscape:pageopacity="0.0"
     borderopacity="1.0"
     bordercolor="#666666"
     pagecolor="#ffffff"
     id="base" />
  <metadata
     id="metadata5">
    <rdf:RDF>
      <cc:Work
         rdf:about="">
        <dc:format>image/svg+xml</dc:format>
        <dc:type
           rdf:resource="http://purl.org/dc/dcmitype/StillImage" />
        <dc:title></dc:title>
      </cc:Work>
    </rdf:RDF>
  </metadata>
  <g
     transform="translate(-25.283025,-23.446685)"
     id="layer1"
     inkscape:groupmode="layer"
     inkscape:label="Layer 1">
    <path
       d="M 281.28409,23.446685 A 255.99947,256.00053 0 0 0 25.283025,279.44669 255.99947,256.00053 0 0 0 281.28409,535.44668 255.99947,256.00053 0 0 0 537.28302,279.44669 255.99947,256.00053 0 0 0 281.28409,23.446685 Z m -0.002,28.554058 c 125.46999,3.3e-5 227.44289,101.973277 227.44289,227.443827 0,125.4705 -101.97399,227.45015 -227.44289,227.45015 -125.46887,0 -227.440755,-101.97965 -227.440755,-227.45015 0,-125.47055 101.970775,-227.443794 227.440755,-227.443827 z"
       style="opacity:0.68;fill:#800066;stroke-width:5.16043"
       id="path10" />
    <g
       style="fill:#ff00ff"
       transform="matrix(4.0793842,0,0,4.0794011,-64.599146,-190.79493)"
       id="g5330">
      <rect
         style="opacity:0.68;fill:#ff00ff;stroke-width:0.832363"
         id="rect19"
         width="58.825436"
         height="23.949461"
         x="73.613373"
         y="103.12316"
         rx="0"
         ry="1.4065794" />
      <path
         id="rect5321"
         style="opacity:0.68;fill:#ff00ff;stroke-width:0.932791"
         d="m 67.095137,87.681031 c -0.563713,3e-6 -1.127649,0.199036 -1.559594,0.596863 L 37.784781,113.83654 c -0.863894,0.79566 -0.863894,2.07704 0,2.8727 l 27.750762,25.55864 c 0.840335,0.77396 2.177756,0.79273 3.04529,0.061 V 88.216918 C 68.159228,87.8613 67.628106,87.681031 67.095137,87.681031 Z" />
    </g>
  </g>
</svg>
