<?xml version="1.0" encoding="UTF-8" standalone="no"?>
<svg
   xmlns:dc="http://purl.org/dc/elements/1.1/"
   xmlns:cc="http://creativecommons.org/ns#"
   xmlns:rdf="http://www.w3.org/1999/02/22-rdf-syntax-ns#"
   xmlns:svg="http://www.w3.org/2000/svg"
   xmlns="http://www.w3.org/2000/svg"
   xmlns:sodipodi="http://sodipodi.sourceforge.net/DTD/sodipodi-0.dtd"
   xmlns:inkscape="http://www.inkscape.org/namespaces/inkscape"
   sodipodi:docname="Quit.svg"
   inkscape:version="1.0 (4035a4fb49, 2020-05-01)"
   id="svg8"
   version="1.1"
   viewBox="0 0 79.776886 79.776894"
   height="79.776894mm"
   width="79.776886mm">
  <defs
     id="defs2" />
  <sodipodi:namedview
     inkscape:window-maximized="0"
     inkscape:window-y="2"
     inkscape:window-x="2"
     inkscape:window-height="728"
     inkscape:window-width="1362"
     showgrid="false"
     inkscape:document-rotation="0"
     inkscape:current-layer="layer1"
     inkscape:document-units="mm"
     inkscape:cy="149.43018"
     inkscape:cx="218.32301"
     inkscape:zoom="0.7"
     inkscape:pageshadow="2"
     inkscape:pageopacity="0.0"
     borderopacity="1.0"
     bordercolor="#666666"
     pagecolor="#ffffff"
     id="base" />
  <metadata
     id="metadata5">
    <rdf:RDF>
      <cc:Work
         rdf:about="">
        <dc:format>image/svg+xml</dc:format>
        <dc:type
           rdf:resource="http://purl.org/dc/dcmitype/StillImage" />
        <dc:title></dc:title>
      </cc:Work>
    </rdf:RDF>
  </metadata>
  <g
     transform="translate(-53.831583,-30.013065)"
     id="layer1"
     inkscape:groupmode="layer"
     inkscape:label="Layer 1">
    <path
       d="m 122.20254,31.328265 c -1.7432,-1.743199 -4.53805,-1.755001 -6.26637,-0.02667 L 93.720118,53.517638 71.504071,31.30159 c -1.728327,-1.728327 -4.523176,-1.716524 -6.266374,0.02667 L 55.146966,41.41899 c -1.743198,1.743199 -1.755366,4.538412 -0.02704,6.266739 L 77.335974,69.901782 55.120291,92.117465 c -1.728325,1.728325 -1.716523,4.523175 0.02667,6.266374 l 10.090731,10.090731 c 1.7432,1.7432 4.538048,1.755 6.266374,0.0267 L 93.719753,86.285561 115.9358,108.50161 c 1.72833,1.72832 4.52354,1.71616 6.26674,-0.027 l 10.09073,-10.090731 c 1.7432,-1.743199 1.755,-4.538049 0.0267,-6.266374 L 110.1039,69.901417 132.31995,47.685369 c 1.72832,-1.728326 1.71652,-4.523174 -0.0267,-6.266374 z"
       style="opacity:1;fill:#ff0000;stroke-width:1.265"
       id="rect10" />
  </g>
</svg>
